<svg width="49" height="48" viewBox="0 0 49 48" xmlns="http://www.w3.org/2000/svg"><title>Dribbble</title><g fill="none" fill-rule="evenodd"><path d="M.183 24c0-13.255 10.805-24 24.134-24C37.645 0 48.45 10.745 48.45 24S37.645 48 24.317 48C10.987 48 .183 37.255.183 24z" fill="#EA4C89"/><path d="M32.226 15.08c-2.072-1.82-4.793-2.92-7.774-2.92-.956 0-1.884.114-2.773.327.175.236 2.386 3.153 4.4 6.83 4.44-1.657 6.117-4.196 6.146-4.238zm6.01 8.785c0 .928-.094 1.855-.28 2.76-.183.88-.452 1.747-.804 2.575-.345.813-.772 1.597-1.272 2.328-.492.726-1.06 1.408-1.68 2.03-.625.617-1.312 1.18-2.04 1.672-.737.494-1.525.92-2.342 1.264-.833.35-1.704.617-2.59.798-.908.186-1.842.28-2.776.28-.934 0-1.868-.094-2.775-.28-.887-.18-1.758-.45-2.59-.798-.817-.345-1.606-.77-2.343-1.264-.73-.492-1.415-1.055-2.038-1.673-.623-.62-1.19-1.303-1.682-2.03-.497-.73-.925-1.514-1.27-2.327-.354-.828-.624-1.694-.806-2.576-.184-.904-.28-1.83-.28-2.76 0-.93.096-1.858.28-2.76.182-.88.452-1.75.805-2.576.346-.813.774-1.598 1.27-2.33.493-.726 1.06-1.406 1.683-2.028.623-.618 1.31-1.18 2.038-1.67.737-.497 1.526-.922 2.343-1.267.832-.35 1.703-.62 2.59-.798.907-.185 1.84-.28 2.775-.28.934 0 1.868.095 2.777.28.884.18 1.755.447 2.588.798.817.345 1.605.77 2.34 1.266.73.49 1.417 1.052 2.04 1.67.623.622 1.19 1.302 1.682 2.03.5.73.927 1.515 1.272 2.328.352.827.62 1.695.803 2.577.187.9.28 1.83.28 2.76zm-11.703 1.888c-.026.01-.052.016-.078.026-6.945 2.407-9.213 7.26-9.237 7.312 1.998 1.546 4.504 2.478 7.234 2.478 1.63 0 3.183-.33 4.596-.928-.174-1.022-.858-4.607-2.515-8.89zm-1.757-3.93C18.716 23.63 12.9 23.5 12.69 23.492c-.003.127-.01.25-.01.375 0 3.007 1.142 5.748 3.017 7.82-.004-.005 3.217-5.688 9.57-7.73.153-.052.31-.097.464-.14-.294-.667-.617-1.333-.954-1.99zm6.254 11.75c2.643-1.774 4.52-4.59 5.044-7.853-.242-.078-3.536-1.115-7.335-.51 1.543 4.22 2.17 7.657 2.29 8.363zm-11.6-20.297c-3.283 1.542-5.733 4.55-6.497 8.175.31.004 5.216.065 10.868-1.428-2.037-3.6-4.213-6.538-4.37-6.746zm7.555 7.784c.273.558.538 1.126.782 1.697.087.205.172.406.255.607 4.043-.506 8.027.345 8.197.38-.028-2.775-1.026-5.322-2.677-7.316-.023.03-1.91 2.744-6.558 4.632z" fill="#FFF"/></g></svg>