<svg width="30" height="30" viewBox="0 0 30 30" xmlns="http://www.w3.org/2000/svg"><title>dribbble</title><path d="M15.405 14.973l.16-.05c-.128-.29-.272-.588-.435-.91-2.938.868-5.75.88-6.252.87 0 .04-.003.078-.003.117 0 1.477.53 2.897 1.497 4.01.323-.52 2.028-3.065 5.033-4.037zm3.587-4.616c-1.11-.955-2.525-1.48-3.992-1.48-.443 0-.89.047-1.328.144.32.433 1.3 1.794 2.22 3.474 2.004-.767 2.91-1.88 3.1-2.137zm-7.705 9.508c1.078.824 2.36 1.26 3.713 1.26.807 0 1.593-.155 2.334-.46-.103-.596-.46-2.407-1.284-4.565-3.314 1.17-4.564 3.377-4.763 3.765zm3.252-6.95c-.95-1.676-1.94-3.056-2.21-3.427-1.67.81-2.895 2.354-3.303 4.156h.025c.635 0 2.89-.053 5.487-.73zm2.824 2.862c.727 2.018 1.062 3.698 1.158 4.234 1.33-.936 2.24-2.375 2.514-3.972-.272-.08-1.252-.346-2.486-.346-.405 0-.803.03-1.186.085zM15 0C6.715 0 0 6.716 0 15c0 8.284 6.715 15 15 15s15-6.716 15-15c0-8.284-6.715-15-15-15zm0 22.34c-4.048 0-7.34-3.292-7.34-7.34S10.95 7.658 15 7.658s7.34 3.294 7.34 7.342-3.292 7.34-7.34 7.34zm1.44-8.785c.136.28.263.558.38.83l.11.265c.433-.052.897-.078 1.378-.078 1.333 0 2.444.196 2.813.27-.033-1.33-.503-2.62-1.328-3.655-.25.32-1.28 1.504-3.35 2.368z" fill="#FFF" fill-rule="evenodd"/></svg>