<?xml version="1.0" encoding="utf-8"?>
<!-- Generator: Adobe Illustrator 19.0.1, SVG Export Plug-In . SVG Version: 6.00 Build 0)  -->
<svg version="1.1" id="Layer_1" xmlns="http://www.w3.org/2000/svg" xmlns:xlink="http://www.w3.org/1999/xlink" x="0px" y="0px"
	 viewBox="0 0 1956.9 257" style="enable-background:new 0 0 1956.9 257;" xml:space="preserve">
<style type="text/css">
	.st0{fill-rule:evenodd;clip-rule:evenodd;fill:#FFFFFF;}
</style>
<path class="st0" d="M1953.6,98.4c-0.7,4-3,6.3-6.3,6.3c-0.3,0-0.7,0-1,0h-0.3c-9-1.3-33.5-4-52.4-4c-10.3,0-25.5,1.3-25.5,15.2
	c0,4.6,3.3,8.9,10,13.6l38.8,26.5c19.9,13.6,24.6,27.2,24.6,41.7c0,41.4-33.8,59-73.3,59c-29.4,0-88.6,0-108.2,0
	c-29.2,0-45.1-9.9-45.1-36.4c0-5,0.7-10.3,1.7-16.2l18.2-104l-30.5-4.6c-3-0.3-5.3-2.3-5.3-5.6c0-0.3,0-0.7,0-1l2.7-14.9
	c0.7-3.6,4-6.6,7.6-6.6h31.2l5-27.2c0.7-3.6,4-6,7.6-6.6l31.8-5.3c0.3,0,1,0,1.3,0c2.7,0,4.6,1.3,4.6,4c0,0.3,0,0.7,0,1l-6.3,34.1
	h29.9c3.3,0,5.6,2.3,5.6,5.6c0,0.3,0,0.7,0,1l-3.3,19.5c-0.7,3.6-4.3,6.6-8,6.6h-29.9l-18.2,104c-1,5-1.7,8.9-1.7,11.6
	c0,6,3,7,11.3,7c0,0,130.7-1.7,97.9-1.7c16.3,0,28.5-3,28.5-18.5c0-5.3-3-10.3-10.9-15.9l-40.5-27.8c-12.6-8.6-21.6-23.5-21.6-39.4
	c0-43.7,38.2-54.3,70-54.3c19.9,0,40.5,2.3,58.7,7c3.3,1,4.6,3,4.6,6c0,0.3,0,0.7,0,1c0,0.3,0,0.3,0,0.7L1953.6,98.4z M1669,247.1
	c-0.7,3.6-4.3,7-8,7h-30.5c-3.3,0-5.6-2.3-5.6-5.6c0-0.3,0.3-1,0.3-1.3l18.9-108c1.3-8.3,2.3-14.6,2.3-19.9
	c0-12.9-5.6-17.2-23.9-17.2c-11.3,0-24.2,4.6-39.5,11.9l-23.6,133.1c-0.7,3.6-4.3,7-8,7H1521c-3.3,0-5.6-2.3-5.6-5.6
	c0-0.3,0.3-1,0.3-1.3l30.5-173.2c0.7-3.6,4-6.6,7.6-6.6h28.9c3.3,0,5.6,2.6,5.6,5.6c0,0.3,0,0.3,0,0.7v0.3l-1.3,7
	c21.2-12.3,35.5-15.9,55.1-15.9c36.2,0,48.1,21.5,48.1,49.7c0,7.6-0.7,15.9-2.3,24.5L1669,247.1z M1529.5,42.4h-32.2
	c-3.3,0-6-2.3-6-5.6c0-0.3,0-0.7,0-1l5.3-29.1c0.7-3.6,4.3-6.6,8-6.6h32.2c3.3,0,5.6,2.3,5.6,5.6c0,0.3,0,0.7,0,1l-5.3,29.1
	C1536.5,39.4,1533.1,42.4,1529.5,42.4z M1493.3,67.2h30.5c3.3,0,5.6,2.3,5.6,5.6c0,0.3,0,0.7,0,1L1499,247.1c-0.7,3.6-4.3,7-8,7
	h-30.5c-3.3,0-5.3-2.6-5.3-5.6c0-0.7,0-1,0-1.3l30.5-173.2C1486.4,70.2,1489.7,67.2,1493.3,67.2z M1448.8,174.2
	c-10.3,54.6-41.5,82.5-93.6,82.5c-45.1,0-66.4-31.8-66.4-66.6c0-5.3,0.3-10.6,1.3-15.9l5-26.8c10-54.3,41.8-82.5,93.9-82.5
	c45.5,0,66.4,30.5,66.4,65.2c0,5.6-0.7,11.6-1.7,17.2L1448.8,174.2z M1382.5,102.7c-20.2,0-37.5,11.9-43.5,44.7l-5,26.8
	c-1,5.3-1.3,10.3-1.3,14.6c0,19.5,9.6,30.1,29.2,30.1c23.2,0,37.5-13.9,43.1-44.7l5-26.8c1-5.3,1.3-10.3,1.3-14.6
	C1411.3,113.3,1402,102.7,1382.5,102.7z M1297.8,84.8c-13.9,62.9-58.7,77.5-109.1,77.5c-8.6,0-21.6-1-29.2-1.3l-15.3,86.4
	c-0.7,3.6-4,6.6-7.6,6.6h-33.2c-3.3,0-5.3-2.3-5.3-5.3c0-0.3,0-0.7,0-1v-0.3l40.1-227.9c1.3-6.6,5.3-8.9,12.3-9.9
	c17.6-2.6,41.5-4.3,65.7-4.3c52.4,0,83.3,20.9,83.3,59.6c0,1.7,0,3.6,0,5.3c0,3.6,0,7.6-1,11.6L1297.8,84.8z M1209.5,43.4
	c-7,0-23.9,0.7-29.9,1.3l-13.9,78.8c5.3,0.3,23.9,1,29.5,1c35.2,0,51.1-14.9,56.7-39.7l0.7-3c1-4.3,1.3-7.9,1.3-11.3
	C1254,50.3,1240.4,43.4,1209.5,43.4z"/>
<path class="st0" d="M1093.3,151.7l-2.7,15.9c-1,5.3-3.3,8.3-8,8.3H974.6c-0.7,4.6-1.7,8.9-1.7,13.6c0,17.9,9.3,29.8,33.8,29.8
	c24.2,0,47.1-2.3,61.4-3.6c0.3,0,1,0,1.3,0c2.7,0,5,0.7,5,3.6c0,0.3,0,1,0,1.3l-4,21.9c-1,5.3-2,7.6-8.3,8.6
	c-22.2,4-36.8,5.6-66.7,5.6c-29.5,0-65.4-16.6-65.4-66.6c0-6,0.3-12.9,1.7-19.9l3.6-20.5c10.9-61.9,43.8-84.8,94.6-84.8
	c44.1,0,65,29.1,65,67.9C1095,138.8,1094.3,145.4,1093.3,151.7z M1023.3,102.7c-26.5,0-38.8,17.9-43.1,42.1h70.3
	c0.7-4.3,1.3-8.3,1.3-12.6C1051.9,112.9,1041.6,102.7,1023.3,102.7z M928.9,102c-10.6,0-25.2,0.7-47.8,11.9l-23.6,133.1
	c-0.7,3.6-4.3,7-8,7h-30.5c-3.3,0-5.3-2.6-5.3-5.6c0-0.7,0-1,0-1.3l30.5-173.2c0.7-3.6,4-6.6,7.6-6.6h28.9c3.3,0,5.6,2.3,5.6,5.6
	c0,0.3,0,0.7,0,1l-1.3,7c18.9-14.6,36.5-15.9,50.4-15.9c3.3,0,5.3,2.3,5.3,5.3c0,0.7,0,1,0,1.3l-4.3,23.8
	C935.9,99,932.5,102,928.9,102z M788.9,254h-28.5c-3.3,0-5.6-2.6-5.6-6c0,0,0-0.3,0-0.7l1-7c-16.3,9.3-34.5,16.6-53.1,16.6
	c-25.9,0-50.1-13.6-50.1-50.3c0-7.6,0.7-15.9,2.3-24.5l18.9-108c0.7-3.6,4.3-7,8-7h30.5c3.6,0,5.3,2.3,5.3,5.6c0,0.3,0,1,0,1.3
	l-18.9,108c-1.3,8.3-2.3,14.6-2.3,19.9c0,13.9,5,17.2,20.2,17.2c15.3,0,34.5-7.6,43.1-11.9l23.6-133.1c0.7-3.6,4-7,7.6-7h30.5
	c3.6,0,5.6,2.6,5.6,5.6c0,0.3,0,1,0,1.3l-30.5,173.2C795.9,251.1,792.6,254,788.9,254z M644.6,100h-29.9l-18.2,104
	c-1,5-1.7,8.9-1.7,11.6c0,6,3,7,11.3,7h17.6c3,0,6,0.7,6,4c0,0.3,0,0.7,0,1l-3.6,20.9c-0.7,3.3-3,5.3-7.3,6
	c-8.3,1.3-15.6,2.3-22.9,2.3c-29.2,0-45.1-9.9-45.1-36.4c0-5,0.7-10.3,1.7-16.2l18.2-104l-30.5-4.6c-3-0.3-5.3-2.3-5.3-5.6
	c0-0.3,0-0.7,0-1l2.7-14.9c0.7-3.6,4-6.6,7.6-6.6h31.2l5-27.2c0.7-3.6,4-6,7.6-6.6l31.8-5.3c0.3,0,1,0,1.3,0c2.7,0,4.6,1.3,4.6,4
	c0,0.3,0,0.7,0,1l-6.3,34.1h29.9c3.3,0,5.6,2.3,5.6,5.6c0,0.3,0,0.7,0,1l-3.3,19.5C651.9,97,648.2,100,644.6,100z M491.5,247.4
	c-0.7,3.6-4.3,6.6-8,6.6H457c-3.6,0-5.3-2.3-5.3-5.6c0-0.3,0-0.7,0-1l1.3-9.6c-18.6,14.2-35.2,18.9-51.4,18.9
	c-30.5,0-54.4-20.5-54.4-59.9c0-6,0.3-13.2,1.7-19.9c0,0,2.7-16.6,5-28.8c9.3-51.7,40.8-83.1,94.2-83.1c21.2,0,45.5,3.3,65,8.6
	c5,1.3,7.6,2.3,7.6,6.3c0,1,0,1.7-0.3,2.6L491.5,247.4z M441.7,100.7c-28.5,0-39.5,20.2-44.1,47.4l-6,34.1c-1,5-1.3,9.6-1.3,13.6
	c0,18.9,10,25.2,22.9,25.2c12.6,0,26.5-5.3,41.5-13.9l18.2-104C466.9,101.7,453.6,100.7,441.7,100.7z M334.5,167.6
	c-1,5.3-3.3,8.3-8,8.3H218.4c-0.7,4.6-1.7,8.9-1.7,13.6c0,17.9,9.3,29.8,33.8,29.8c24.2,0,47.1-2.3,61.4-3.6c0.3,0,1,0,1.3,0
	c2.7,0,5,0.7,5,3.6c0,0.3,0,1,0,1.3l-4,21.9c-1,5.3-2,7.6-8.3,8.6c-22.2,4-36.8,5.6-66.7,5.6c-29.5,0-65.4-16.6-65.4-66.6
	c0-6,0.3-12.9,1.7-19.9l3.6-20.5c10.9-61.9,43.8-84.8,94.6-84.8c44.1,0,65,29.1,65,67.9c0,6-0.7,12.6-1.7,18.9L334.5,167.6z
	 M267.1,102.7c-26.5,0-38.8,17.9-43.1,42.1h70.3c0.7-4.3,1.3-8.3,1.3-12.6C295.7,112.9,285.4,102.7,267.1,102.7z M183.1,38.1
	c-0.7,3.6-4.3,6.6-8,6.6h-67.7c-19.2,0-27.2,6.6-31.2,28.5L70,109h89.9c3.3,0,5.6,2.3,5.6,5.6c0,0.3,0,0.7,0,1l-4.3,23.8
	c-0.7,3.6-4.3,6.6-8,6.6H63.4L45.8,247.4c-0.7,3.6-4.3,6.6-8,6.6H5.3C2,254,0,251.7,0,248.7c0-0.7,0-1,0-1.3L30.5,73.2
	c10-56.3,39.1-67.9,88.6-67.9c39.5,0,52.1,3,62.4,4.6c4,0.7,5.6,1.7,5.6,4.6c0,0.7-0.3,1.3-0.3,2.3L183.1,38.1z"/>
</svg>
