<svg width="30" height="30" viewBox="0 0 30 30" xmlns="http://www.w3.org/2000/svg"><title>Github Copy</title><path d="M.168 15c0-8.284 6.616-15 14.776-15S29.72 6.716 29.72 15c0 8.284-6.616 15-14.776 15S.168 23.284.168 15zm8.94.968c.695 1.257 2.034 2.04 4.292 2.256-.322.244-.71.708-.763 1.243-.405.262-1.22.348-1.853.15-.888-.28-1.228-2.035-2.557-1.785-.288.054-.23.243.018.404.405.262.786.59 1.08 1.286.227.535.702 1.49 2.203 1.49.596 0 1.014-.07 1.014-.07s.012 1.365.012 1.896c0 .612-.83.785-.83 1.08 0 .116.276.127.496.127.435 0 1.34-.363 1.34-1 0-.505.01-2.205.01-2.502 0-.65.35-.856.35-.856s.042 3.47-.085 3.936c-.15.547-.417.47-.417.713 0 .363 1.09.09 1.452-.707.28-.622.157-4.026.157-4.026l.298-.007s.017 1.56.007 2.272c-.01.736-.06 1.67.378 2.11.29.29 1.224.796 1.224.333 0-.27-.512-.492-.512-1.22v-3.36c.41 0 .347 1.105.347 1.105l.03 2.05s-.09.75.81 1.062c.317.11.997.14 1.03-.046.03-.186-.82-.463-.827-1.042-.005-.353.015-.56.015-2.093 0-1.535-.206-2.102-.926-2.554 2.22-.228 3.595-.776 4.265-2.243.052 0 .273-.686.244-.686.15-.554.232-1.21.248-1.986-.003-2.103-1.013-2.848-1.207-3.197.287-1.594-.047-2.32-.202-2.568-.572-.203-1.99.522-2.765 1.034-1.264-.37-3.934-.334-4.935.094-1.848-1.32-2.825-1.118-2.825-1.118s-.632 1.13-.167 2.782c-.608.773-1.06 1.32-1.06 2.77 0 .817.095 1.548.313 2.186-.028 0 .29.684.3.684z" fill="#FFF" fill-rule="evenodd"/></svg>