<svg width="49" height="48" viewBox="0 0 49 48" xmlns="http://www.w3.org/2000/svg"><title>Github</title><g fill="none" fill-rule="evenodd"><path d="M.275 24c0-13.255 10.805-24 24.133-24C37.738 0 48.54 10.745 48.54 24S37.738 48 24.41 48C11.08 48 .275 37.255.275 24z" fill="#333"/><path d="M14.878 25.548c1.134 2.013 3.32 3.265 7.01 3.61-.527.39-1.16 1.132-1.247 1.99-.66.418-1.992.556-3.027.237-1.45-.448-2.005-3.254-4.176-2.854-.47.088-.377.39.03.648.66.418 1.284.942 1.765 2.057.37.856 1.145 2.386 3.598 2.386.973 0 1.655-.113 1.655-.113s.02 2.185.02 3.034c0 .98-1.354 1.257-1.354 1.728 0 .186.45.204.81.204.71 0 2.19-.58 2.19-1.6 0-.808.013-3.527.013-4.003 0-1.04.57-1.37.57-1.37s.072 5.552-.136 6.297c-.242.875-.68.75-.68 1.14 0 .582 1.78.143 2.37-1.13.457-.994.257-6.44.257-6.44l.487-.01s.028 2.493.012 3.633c-.017 1.18-.1 2.673.618 3.377.472.463 2 1.275 2 .533 0-.43-.838-.786-.838-1.953v-5.372c.668 0 .568 1.766.568 1.766l.05 3.283s-.148 1.196 1.322 1.696c.52.177 1.63.225 1.682-.073.052-.298-1.338-.742-1.35-1.668-.008-.566.026-.895.026-3.35 0-2.454-.338-3.36-1.513-4.084 3.627-.365 5.87-1.24 6.966-3.59.085.003.445-1.097.398-1.097.247-.887.38-1.936.405-3.178-.006-3.368-1.655-4.56-1.972-5.118.467-2.55-.078-3.71-.33-4.108-.936-.325-3.252.836-4.518 1.654-2.064-.59-6.425-.533-8.06.152-3.018-2.112-4.614-1.79-4.614-1.79s-1.03 1.81-.272 4.454c-.993 1.236-1.733 2.11-1.733 4.43 0 1.308.158 2.478.513 3.5-.044 0 .476 1.093.49 1.092z" fill="#FFF"/></g></svg>