<svg width="49" height="48" viewBox="0 0 49 48" xmlns="http://www.w3.org/2000/svg"><title>Instagram</title><g fill="none" fill-rule="evenodd"><path d="M.642 24c0-13.255 10.805-24 24.133-24 13.33 0 24.133 10.745 24.133 24S38.104 48 24.775 48C11.447 48 .642 37.255.642 24z" fill="#517FA4"/><path d="M15.16 21.76c0 3.61-.002 7.223 0 10.835 0 .52.45.966.974.966h17.278c.527 0 .977-.445.977-.968V21.693h-2.343c.33 1.05.432 2.12.302 3.21-.13 1.09-.484 2.106-1.06 3.043-.575.938-1.322 1.715-2.236 2.334-2.37 1.605-5.487 1.746-8 .343-1.272-.708-2.27-1.696-2.965-2.97-1.038-1.9-1.204-3.892-.595-5.96H15.16v.066zm19.815 14.377c-.126.028-.254.045-.38.067H14.956c-.053-.008-.105-.018-.157-.025-1.08-.14-1.988-.958-2.228-2.016-.028-.123-.046-.248-.068-.372V14.21c.008-.046.017-.092.023-.137.155-1.096.96-1.967 2.047-2.213.117-.027.237-.043.356-.064h19.69c.046.008.09.018.138.024 1.114.152 2.02 1 2.236 2.094.02.107.035.214.053.32v19.53c-.018.11-.034.22-.055.328-.196 1.002-1.014 1.834-2.017 2.045zM19.802 23.925c-.04 2.767 2.188 4.96 4.86 5.018 2.778.06 5.025-2.148 5.084-4.834.06-2.77-2.186-5.058-4.97-5.056-2.723-.002-4.936 2.176-4.974 4.87zm13.644-5.87c.52-.012.943-.455.943-.972V14.77c0-.552-.44-.992-.996-.992h-2.318c-.554 0-.995.44-.995.994 0 .764-.002 1.528.003 2.292 0 .114.023.233.06.34.138.407.513.657.97.66l1.12-.002c.404-.004.81.004 1.213-.006z" fill="#FFF"/></g></svg>