<svg width="30" height="30" viewBox="0 0 30 30" xmlns="http://www.w3.org/2000/svg"><title>instagram</title><path d="M15 30c8.284 0 15-6.716 15-15 0-8.284-6.716-15-15-15C6.716 0 0 6.716 0 15c0 8.284 6.716 15 15 15zm4.103-15.08c0 2.31-1.873 4.183-4.183 4.183-2.312 0-4.184-1.872-4.184-4.183 0-.276.027-.545.078-.805H8v5.562c0 1.194.967 2.162 2.162 2.162h9.515c1.193 0 2.162-.97 2.162-2.163v-5.562h-2.815c.05.26.078.53.078.805zM19.677 8h-9.515C8.967 8 8 8.968 8 10.162v2.344h3.503c.758-1.07 2.005-1.77 3.417-1.77 1.41 0 2.658.7 3.416 1.77h3.503v-2.344C21.84 8.968 20.87 8 19.676 8zm-2.183 6.92c0-1.423-1.153-2.575-2.574-2.575-1.423 0-2.575 1.152-2.575 2.575 0 1.422 1.152 2.574 2.575 2.574 1.42 0 2.574-1.152 2.574-2.574z" fill="#FFF" fill-rule="evenodd"/></svg>