<svg width="257" height="58" viewBox="0 0 257 58" fill="none" xmlns="http://www.w3.org/2000/svg">
<path d="M31.4358 53.7318V27.6318L9.53613 14.5001L29.0176 2.81836L50.7809 15.8684V42.1318L31.4358 53.7318Z" fill="white"/>
<path d="M7.25488 42.1318V18.7686L14.5093 23.1186V37.6185L26.6 44.8685V53.7318L7.25488 42.1318Z" fill="white"/>
<path fill-rule="evenodd" clip-rule="evenodd" d="M85.0491 12.0837V38.5662H95.2795V43.4981H79.7988V12.0837H85.0491ZM113.611 21.5637H118.703V43.4981H113.611V41.2011C111.523 43.1528 109.277 44.1287 106.873 44.1287C103.839 44.1287 101.33 43.0327 99.3471 40.8408C97.3789 38.6037 96.395 35.8112 96.395 32.4634C96.395 29.1755 97.3789 26.4355 99.3471 24.2436C101.315 22.0516 103.779 20.9557 106.738 20.9557C109.292 20.9557 111.583 22.0066 113.611 24.1085V21.5637ZM101.578 32.4634C101.578 34.5652 102.141 36.2767 103.268 37.5979C104.425 38.934 105.882 39.6022 107.639 39.6022C109.517 39.6022 111.034 38.9565 112.191 37.6655C113.348 36.3293 113.926 34.6328 113.926 32.576C113.926 30.5192 113.348 28.8227 112.191 27.4865C111.034 26.1803 109.532 25.5273 107.684 25.5273C105.942 25.5273 104.485 26.1878 103.313 27.509C102.156 28.8452 101.578 30.4967 101.578 32.4634ZM128.314 9.66699V24.1085C130.342 22.0066 132.641 20.9557 135.209 20.9557C138.169 20.9557 140.633 22.0592 142.601 24.2661C144.568 26.458 145.552 29.1905 145.552 32.4634C145.552 35.8414 144.561 38.6339 142.578 40.8408C140.61 43.0327 138.124 44.1287 135.119 44.1287C132.581 44.1287 130.312 43.1528 128.314 41.2011V43.4981H123.244V9.66699H128.314ZM140.37 32.6886C140.37 30.5866 139.799 28.8751 138.657 27.5539C137.5 26.2028 136.051 25.5273 134.308 25.5273C132.445 25.5273 130.928 26.1803 129.756 27.4865C128.6 28.7775 128.021 30.459 128.021 32.5308C128.021 34.6628 128.592 36.3668 129.734 37.643C130.875 38.949 132.378 39.6022 134.241 39.6022C135.998 39.6022 137.455 38.949 138.612 37.643C139.784 36.3219 140.37 34.6703 140.37 32.6886ZM169.044 33.7244H153.316C153.451 35.526 154.037 36.9599 155.073 38.0258C156.11 39.0766 157.439 39.6022 159.062 39.6022C160.324 39.6022 161.367 39.3018 162.194 38.7013C163.005 38.1008 163.929 36.9898 164.965 35.3685L169.247 37.7554C168.586 38.8816 167.887 39.8461 167.151 40.6494C166.415 41.4524 165.626 42.1132 164.785 42.631C163.944 43.1489 163.035 43.5281 162.059 43.7683C161.082 44.0085 160.023 44.1287 158.881 44.1287C155.607 44.1287 152.978 43.0776 150.995 40.9759C149.012 38.8591 148.02 36.0514 148.02 32.5535C148.02 29.0854 148.982 26.2779 150.904 24.131C152.842 22.0141 155.411 20.9557 158.611 20.9557C161.841 20.9557 164.394 21.9841 166.272 24.0409C168.135 26.0827 169.067 28.9126 169.067 32.5308L169.044 33.7244ZM163.839 29.5808C163.133 26.8785 161.428 25.5273 158.723 25.5273C158.108 25.5273 157.529 25.6211 156.988 25.8086C156.448 25.9964 155.956 26.2666 155.512 26.6194C155.069 26.9723 154.69 27.3964 154.375 27.8918C154.059 28.3872 153.819 28.9503 153.654 29.5808H163.839ZM177.798 9.66699V43.4981H172.728V9.66699H177.798ZM187.432 9.66699V24.1085C189.46 22.0066 191.758 20.9557 194.327 20.9557C197.287 20.9557 199.75 22.0592 201.718 24.2661C203.686 26.458 204.67 29.1905 204.67 32.4634C204.67 35.8414 203.679 38.6339 201.696 40.8408C199.728 43.0327 197.242 44.1287 194.237 44.1287C191.698 44.1287 189.43 43.1528 187.432 41.2011V43.4981H182.362V9.66699H187.432ZM199.487 32.6886C199.487 30.5866 198.917 28.8751 197.775 27.5539C196.618 26.2028 195.168 25.5273 193.426 25.5273C191.563 25.5273 190.046 26.1803 188.874 27.4865C187.717 28.7775 187.139 30.459 187.139 32.5308C187.139 34.6628 187.71 36.3668 188.852 37.643C189.993 38.949 191.496 39.6022 193.358 39.6022C195.116 39.6022 196.573 38.949 197.73 37.643C198.902 36.3219 199.487 34.6703 199.487 32.6886ZM207.138 32.3733C207.138 29.2055 208.272 26.5107 210.54 24.2885C212.809 22.0667 215.573 20.9557 218.833 20.9557C222.108 20.9557 224.887 22.0742 227.17 24.3113C229.424 26.5481 230.55 29.2956 230.55 32.5535C230.55 35.8414 229.416 38.5962 227.148 40.8183C224.864 43.0252 222.062 44.1287 218.743 44.1287C215.453 44.1287 212.696 43.0027 210.473 40.7506C208.249 38.5288 207.138 35.7363 207.138 32.3733ZM212.321 32.4634C212.321 34.6553 212.906 36.3893 214.078 37.6655C215.28 38.9565 216.865 39.6022 218.833 39.6022C220.816 39.6022 222.401 38.964 223.587 37.688C224.774 36.4118 225.368 34.7078 225.368 32.576C225.368 30.444 224.774 28.74 223.587 27.464C222.386 26.1728 220.801 25.5273 218.833 25.5273C216.895 25.5273 215.325 26.1728 214.123 27.464C212.921 28.755 212.321 30.4216 212.321 32.4634ZM239.756 31.6301L231.869 21.5637H237.908L242.798 27.9595L247.777 21.5637H253.997L245.884 31.6301L255.281 43.4981H249.243L242.798 35.3008L236.195 43.4981H229.998L239.756 31.6301Z" fill="white"/>
</svg>
