<svg width="30" height="30" viewBox="0 0 30 30" xmlns="http://www.w3.org/2000/svg"><title>linkedin</title><path d="M15 0C6.716 0 0 6.716 0 15c0 8.284 6.716 15 15 15 8.285 0 15-6.716 15-15 0-8.284-6.715-15-15-15zM8.29 11.442h3.04v9.774H8.29v-9.774zm1.5-1.2c-.96 0-1.58-.68-1.58-1.518 0-.86.64-1.52 1.62-1.52.98 0 1.58.66 1.598 1.52 0 .84-.62 1.52-1.638 1.52zm12.63 10.974h-3.037V15.8c0-1.26-.44-2.12-1.54-2.12-.838 0-1.338.58-1.558 1.14-.08.2-.1.48-.1.76v5.636h-3.038V14.56c0-1.22-.04-2.238-.08-3.118h2.638l.14 1.36h.06c.4-.64 1.38-1.58 3.02-1.58 1.997 0 3.496 1.34 3.496 4.218v5.776z" fill="#FFF" fill-rule="evenodd"/></svg>