<svg width="49" height="48" viewBox="0 0 49 48" xmlns="http://www.w3.org/2000/svg"><title>Twitter</title><g fill="none" fill-rule="evenodd"><path d="M0 24C0 10.745 10.805 0 24.133 0c13.33 0 24.133 10.745 24.133 24S37.462 48 24.133 48C10.805 48 0 37.255 0 24z" fill="#4099FF"/><path d="M23.536 19.11l.05.83-.842-.1c-3.068-.39-5.748-1.713-8.024-3.933l-1.112-1.1-.287.812c-.606 1.813-.218 3.728 1.046 5.016.674.712.523.813-.64.39-.405-.136-.76-.238-.793-.187-.118.118.287 1.66.607 2.27.438.848 1.332 1.678 2.31 2.17l.825.39-.977.016c-.944 0-.978.017-.877.373.338 1.1 1.67 2.27 3.153 2.78l1.045.354-.91.543c-1.348.78-2.933 1.22-4.517 1.254-.758.018-1.382.086-1.382.137 0 .17 2.057 1.118 3.254 1.49 3.59 1.103 7.855.628 11.057-1.253 2.275-1.34 4.55-4 5.613-6.576.573-1.373 1.146-3.88 1.146-5.084 0-.78.05-.882.993-1.814.557-.542 1.08-1.135 1.18-1.305.17-.322.152-.322-.708-.034-1.432.51-1.635.442-.927-.32.523-.543 1.146-1.526 1.146-1.814 0-.05-.252.034-.54.186-.302.17-.977.424-1.482.576l-.91.29-.827-.56c-.455-.306-1.095-.645-1.432-.746-.86-.238-2.175-.204-2.95.067-2.107.762-3.44 2.728-3.287 4.88z" fill="#FFF"/></g></svg>