<svg width="31" height="30" viewBox="0 0 31 30" xmlns="http://www.w3.org/2000/svg"><title>Twitter</title><path d="M0 15C0 6.716 6.836 0 15.268 0s15.268 6.716 15.268 15c0 8.284-6.836 15-15.268 15S0 23.284 0 15zm14.89-3.056l.032.52-.533-.065c-1.942-.244-3.638-1.07-5.077-2.458l-.704-.69-.182.51c-.384 1.133-.14 2.33.66 3.135.427.445.33.51-.405.244-.255-.084-.48-.147-.5-.116-.075.075.18 1.038.383 1.42.277.53.843 1.048 1.46 1.356l.524.243-.62.01c-.596 0-.617.01-.553.234.213.688 1.055 1.42 1.994 1.737l.662.223-.576.34c-.853.486-1.855.76-2.858.782-.48.01-.874.052-.874.084 0 .106 1.3.7 2.058.932 2.27.69 4.97.392 6.996-.784 1.44-.836 2.88-2.5 3.55-4.11.363-.858.726-2.425.726-3.177 0-.488.032-.55.63-1.134.35-.338.682-.708.746-.814.106-.202.096-.202-.448-.02-.907.316-1.035.274-.587-.203.33-.34.725-.953.725-1.133 0-.032-.16.02-.34.116-.193.106-.62.265-.94.36l-.575.18-.523-.35c-.288-.19-.693-.4-.906-.465-.544-.147-1.376-.126-1.866.043-1.333.477-2.176 1.706-2.08 3.05z" fill="#FFF" fill-rule="evenodd"/></svg>